Coordinates
version=1
nRows=17
nColumns=36
inDegrees=yes

Units are S.I. units (second, meters, Newtons, ...)
If the header above contains a line with 'inDegrees', this indicates whether rotational values are in degrees (yes) or radians (no).

endheader
time	pelvis_tilt	pelvis_list	pelvis_rotation	pelvis_tx	pelvis_ty	pelvis_tz	hip_flexion_r	hip_adduction_r	hip_rotation_r	knee_angle_r	knee_angle_r_beta	ankle_angle_r	subtalar_angle_r	mtp_angle_r	hip_flexion_l	hip_adduction_l	hip_rotation_l	knee_angle_l	knee_angle_l_beta	ankle_angle_l	subtalar_angle_l	mtp_angle_l	lumbar_extension	lumbar_bending	lumbar_rotation	arm_flex_r	arm_add_r	arm_rot_r	elbow_flex_r	pro_sup_r	arm_flex_l	arm_add_l	arm_rot_l	elbow_flex_l	pro_sup_l
      2.42500000	     -9.32600903	     -3.58007994	      6.31088085	      0.33565819	      1.16690300	     -0.06019788	     13.39213552	     -7.21000933	    -13.64006341	     12.18597168	      0.21268533	    -43.98430120	    -17.70241475	     -7.49999987	     16.04587693	    -10.34327887	      2.02741007	      8.55526913	      0.14931761	    -40.10394956	     -2.45828557	     -7.49999987	      0.45625053	     -0.15925152	     -3.38337644	      1.34644492	    -33.25144792	     19.49385808	    111.14976831	     87.38778511	     21.54895835	    -22.63466507	      5.12585611	    109.52776883	     63.94331370
      2.42916670	     -9.31384697	     -2.89459858	      5.71156960	      0.33959635	      1.16909373	     -0.06324885	     13.30120049	     -7.93898028	    -14.63995773	     11.51430825	      0.20096259	    -45.92827450	    -16.49149305	     -7.49999987	     15.58956938	     -9.60381541	      1.43636170	      8.44175172	      0.14733636	    -40.35236915	     -2.70750510	     -7.49999987	      0.50824186	     -0.80324205	     -3.15072952	      1.36455035	    -32.15581660	     19.24427577	    110.27599458	     87.38625542	     21.11991667	    -22.59971022	      4.88717163	    109.22051332	     63.84538342
      2.43333330	     -9.15111372	     -2.69115131	      5.32222272	      0.33612977	      1.16981215	     -0.05856047	     13.54930268	     -7.93170104	    -15.13306276	     11.23491471	      0.19608625	    -46.78118492	    -16.37068748	     -7.49999987	     15.52983049	     -9.53917389	      0.77034824	      8.52415832	      0.14877463	    -40.69079531	     -3.09229319	     -7.49999987	      0.15783461	     -1.06203040	     -3.07245526	      1.49083442	    -30.96898599	     18.99026698	    109.43471620	     86.30281205	     21.02193063	    -22.40199587	      4.66590515	    108.99050974	     63.57862514
      2.43750000	     -9.13027155	     -2.40550977	      5.09152334	      0.33976739	      1.16945896	     -0.06230352	     13.46422702	     -8.18101359	    -15.89340223	     10.56437285	      0.18438309	    -47.19945451	    -15.53268114	     -7.49999987	     15.29726861	     -9.26278075	      0.31440907	      8.17439850	      0.14267017	    -41.46340183	     -3.21353778	     -7.49999987	      0.23220619	     -1.29652285	     -2.93711416	      1.53410830	    -29.97025735	     18.79837404	    108.55417829	     86.37398317	     20.59612368	    -22.05379210	      4.37008743	    108.68142424	     63.48181364
      2.44166670	     -8.97074722	     -2.33014698	      5.08146363	      0.34018393	      1.16930791	     -0.06270332	     13.37084418	     -8.05967195	    -16.34591452	     10.18660214	      0.17778975	    -46.41108980	    -15.14608770	     -7.49999987	     15.17350296	     -9.20052856	      0.29459757	      7.95801267	      0.13889352	    -42.29016326	     -3.08918738	     -7.49999987	      0.01708797	     -1.30051561	     -3.41939280	      2.12856352	    -28.85381734	     19.09236132	    107.42395844	     86.75325817	     19.86108967	    -21.89716404	      3.50826247	    108.81903491	     62.75325479
      2.44583330	     -8.81842733	     -2.59489778	      4.85716170	      0.33986582	      1.16920057	     -0.06224055	     13.47303188	     -7.62169329	    -16.75134856	      9.95385005	      0.17372746	    -45.08103809	    -16.26228745	     -7.49999987	     14.93721230	     -9.64286397	      0.16340690	      7.48140274	      0.13057511	    -42.50764989	     -2.81930805	     -7.49999987	     -0.35182871	     -0.76480095	     -3.30622754	      2.31491066	    -28.00882872	     18.87431476	    106.73712458	     87.08921756	     19.57612985	    -21.54906810	      2.92266932	    108.68341058	     62.47596181
      2.45000000	     -8.55840824	     -3.26304178	      4.75826173	      0.33970468	      1.16736798	     -0.06344032	     13.53861660	     -6.74783649	    -16.30287859	     10.75169564	      0.18765249	    -42.59444460	    -18.54816825	     -7.49999987	     14.73790848	    -10.42253454	      0.41929531	      7.31319393	      0.12763931	    -42.32330544	     -3.24581480	     -7.49999987	     -0.76103550	      0.12605593	     -3.23251201	      2.09243396	    -27.28914787	     18.31889254	    105.93817206	     85.37298750	     19.13845788	    -20.88777918	      2.23211484	    108.62752152	     62.33777698
      2.45416670	     -8.43525392	     -3.90207364	      4.94038102	      0.33939477	      1.17047669	     -0.06373963	     13.99574893	     -6.11326695	    -15.32656906	     12.07302067	      0.21071396	    -40.83719458	    -20.93564325	     -7.49999987	     14.80890046	    -11.01551160	      0.77941700	      7.15172505	      0.12482115	    -42.40465075	     -4.14849949	     -7.49999987	     -1.10976995	      1.15501853	     -3.19766896	      1.85333548	    -26.65212494	     17.87799810	    105.27925629	     83.47837346	     19.06421632	    -20.29902942	      1.98875991	    108.21622428	     62.19832982
      2.45833330	     -8.30845050	     -4.13239392	      5.33555254	      0.34390797	      1.16974114	     -0.06091320	     14.16335620	     -5.63294672	    -14.30472832	     12.27410539	      0.21422355	    -38.19596842	    -22.12164922	     -7.49999987	     14.57028752	    -11.27217265	      1.02221057	      6.69672067	      0.11687982	    -42.25079323	     -4.01054566	     -7.49999987	     -1.18727542	      1.43947469	     -3.47139923	      1.15340892	    -25.55304670	     17.03715746	    104.59778852	     83.98200804	     18.87378628	    -19.98269428	      1.68694838	    108.16289748	     62.18116158
      2.46250000	     -8.19423175	     -4.10203394	      5.55458772	      0.34350312	      1.16939500	     -0.06089923	     14.32024273	     -5.45926196	    -13.57099833	     12.40949080	      0.21658647	    -36.49568985	    -21.92754409	     -7.49999987	     14.48888862	    -11.25466311	      0.54203344	      6.42744061	      0.11218000	    -42.48610543	     -4.34551776	     -7.49999987	     -1.43609483	      1.48038029	     -3.38507857	      0.55136538	    -24.66869699	     16.50134715	    104.20229445	     81.37821596	     18.94570616	    -19.98319652	      2.08572019	    107.83527325	     61.97030822
      2.46666670	     -8.14709414	     -3.45725744	      5.72173489	      0.34411907	      1.16820958	     -0.06150013	     14.01557161	     -6.04440998	    -13.48672302	     11.92667326	      0.20815972	    -37.83407172	    -20.40285518	     -7.49999987	     14.37842252	    -10.55623885	      0.24641486	      6.07485457	      0.10602621	    -42.81984682	     -4.15627842	     -7.49999987	     -1.68066945	      0.73142224	     -2.98848989	     -0.60550598	    -23.48904862	     14.67025526	    104.10134758	     87.91825422	     19.07559567	    -19.98792331	      2.40805201	    107.73505501	     61.67489651
      2.47083330	     -7.91720714	     -3.39513519	      5.49833112	      0.33944108	      1.16840177	     -0.06504843	     14.01581301	     -6.05004358	    -12.86302816	     12.15854639	      0.21220667	    -37.67975737	    -21.14880509	     -7.49999987	     14.35335230	    -10.36001917	      0.36643996	      6.03501712	      0.10533092	    -41.97092420	     -4.39847365	     -7.49999987	     -2.24439524	      0.94989761	     -2.77873825	     -0.31586110	    -22.96926155	     14.51724550	    103.62995531	     87.90513923	     18.75422378	    -19.71475697	      2.09205739	    107.40586233	     61.63519955
      2.47500000	     -7.81442915	     -3.50637643	      5.28852074	      0.33981219	      1.16575620	     -0.06564429	     14.07960435	     -5.94369033	    -12.29681223	     12.35073863	      0.21556105	    -37.53264694	    -23.11921841	     -7.49999987	     14.43699826	    -10.35316826	      0.81716426	      5.85684185	      0.10222117	    -41.13960744	     -4.45872886	     -7.49999987	     -2.50856925	      1.31401287	     -2.62384186	      0.10875543	    -22.73245949	     14.64166023	    103.24824761	     85.81478306	     18.51927551	    -19.46353637	      1.92263815	    106.94741958	     61.51006402
      2.47916670	     -7.78410290	     -3.41371236	      4.99131631	      0.34376443	      1.16712181	     -0.06110641	     14.07452896	     -5.65903001	    -11.22313141	     11.89349781	      0.20758070	    -36.10069604	    -22.61404961	     -7.49999987	     14.25944447	    -10.49998988	      0.80408092	      5.66330821	      0.09884337	    -39.99023239	     -4.26952424	     -7.49999987	     -2.71539094	      1.31042354	     -2.50290480	      0.51562050	    -22.40161762	     14.71377150	    103.13052931	     85.97759287	     18.34896214	    -19.69371073	      1.83389715	    106.98144798	     61.47196753
      2.48333330	     -7.76723163	     -3.47328312	      4.81084479	      0.34416097	      1.16068582	     -0.06143145	     14.07140421	     -5.36689074	    -11.23868511	     11.60329956	      0.20251578	    -35.03629644	    -23.27734318	     -7.49999987	     14.07119870	    -10.68237515	      1.02580377	      5.42471989	      0.09467922	    -38.47281602	     -3.24607437	     -7.49999987	     -2.99982810	      1.52974767	     -2.38410893	      0.96629151	    -22.41721566	     15.04270992	    103.35400938	     84.97524548	     18.15820092	    -19.65132751	      1.64859334	    107.39936094	     61.31433227
      2.48750000	     -7.73457841	     -3.27581452	      4.80454018	      0.34373865	      1.16303294	     -0.07004744	     14.29710458	     -5.74495609	    -10.55928132	     11.47100204	      0.20020675	    -35.07098663	    -22.97837580	     -7.49999987	     14.10116588	    -10.18576297	      1.38379831	      5.58503871	      0.09747731	    -37.31123719	     -3.64292609	     -7.49999987	     -3.37588451	      1.62150727	     -2.41675045	      1.37213292	    -22.64425866	     14.99457309	    103.33845904	     85.05005437	     18.09565130	    -19.49587613	      1.76686261	    107.28267983	     61.28619113
      2.49166670	     -7.64982610	     -2.72389387	      4.60569734	      0.34420552	      1.15894006	     -0.06988965	     14.37511740	     -6.40322070	    -10.50753636	     10.88561649	      0.18998985	    -36.88388479	    -20.89455736	     -7.49999987	     13.93416868	     -9.42506820	      1.39895565	      5.75039708	      0.10036336	    -36.34499064	     -3.78770187	     -7.49999987	     -3.76649023	      1.26916230	     -2.31165808	      1.75762670	    -22.92203996	     15.17364536	    103.61590895	     84.15480872	     17.96337166	    -19.45049215	      1.72019346	    107.59962366	     60.95663666
